<?xml version="1.0" standalone="no"?>
<!DOCTYPE svg PUBLIC "-//W3C//DTD SVG 20010904//EN"
 "http://www.w3.org/TR/2001/REC-SVG-20010904/DTD/svg10.dtd">
<svg version="1.0" xmlns="http://www.w3.org/2000/svg"
 width="260.000000pt" height="260.000000pt" viewBox="0 0 260.000000 260.000000"
 preserveAspectRatio="xMidYMid meet">
<metadata>
Created by potrace 1.11, written by Peter Selinger 2001-2013
</metadata>
<g transform="translate(0.000000,260.000000) scale(0.100000,-0.100000)"
fill="#000000" stroke="none">
<path d="M1158 2585 c-2 -2 -23 -6 -48 -10 -440 -63 -822 -358 -1003 -775 -27
-62 -72 -204 -82 -259 -3 -14 -8 -37 -11 -51 -3 -14 -7 -95 -9 -181 -4 -238
36 -412 141 -618 97 -190 261 -378 419 -482 119 -78 208 -122 335 -165 l85
-29 310 0 c171 0 321 3 335 7 134 36 287 107 407 189 99 68 263 232 329 329
101 148 178 330 210 498 16 85 19 411 4 478 -5 22 -11 53 -14 71 -21 116 -131
353 -221 471 -30 40 -55 82 -55 93 0 11 -4 17 -10 14 -5 -3 -43 25 -83 62 -87
81 -96 88 -176 142 -209 142 -466 219 -732 219 -70 0 -129 -1 -131 -3z"/>
</g>
</svg>
